<svg width="13" height="12" viewBox="0 0 13 12" fill="none" xmlns="http://www.w3.org/2000/svg">
<g clip-path="url(#clip0_750_2)">
<path d="M2.01094 12V10.8H8.30781C9.25573 10.8 10.0716 10.49 10.7555 9.87C11.4393 9.25 11.7812 8.48 11.7812 7.56C11.7812 6.64 11.4393 5.87 10.7555 5.25C10.0716 4.63 9.25573 4.32 8.30781 4.32H2.31562L4.63125 6.6L3.77812 7.44L0 3.72L3.77812 0L4.63125 0.84L2.31562 3.12H8.2875C9.57396 3.12 10.681 3.54667 11.6086 4.4C12.5362 5.25333 13 6.30667 13 7.56C13 8.81333 12.5362 9.86667 11.6086 10.72C10.681 11.5733 9.57396 12 8.2875 12H2.01094Z" fill="#F78C6C"/>
</g>
<defs>
<clipPath id="clip0_750_2">
<rect width="13" height="12" fill="white"/>
</clipPath>
</defs>
</svg>
